<svg width="27" height="27" viewBox="0 0 27 27" fill="none" xmlns="http://www.w3.org/2000/svg">
<path d="M22.0002 22.0002L17.6572 17.6572M17.6572 17.6572C18.4001 16.9143 18.9894 16.0324 19.3914 15.0618C19.7935 14.0911 20.0004 13.0508 20.0004 12.0002C20.0004 10.9496 19.7935 9.90929 19.3914 8.93866C18.9894 7.96803 18.4001 7.08609 17.6572 6.34321C16.9143 5.60032 16.0324 5.01103 15.0618 4.60898C14.0911 4.20693 13.0508 4 12.0002 4C10.9496 4 9.90929 4.20693 8.93866 4.60898C7.96803 5.01103 7.08609 5.60032 6.34321 6.34321C4.84288 7.84354 4 9.87842 4 12.0002C4 14.122 4.84288 16.1569 6.34321 17.6572C7.84354 19.1575 9.87842 20.0004 12.0002 20.0004C14.122 20.0004 16.1569 19.1575 17.6572 17.6572Z" stroke="#2B3335" stroke-width="2.5" stroke-linecap="round" stroke-linejoin="round"/>
</svg>
