<svg width="21" height="21" viewBox="0 0 21 21" fill="none" xmlns="http://www.w3.org/2000/svg">
<g clip-path="url(#clip0_1846_1302)">
<path fill-rule="evenodd" clip-rule="evenodd" d="M15.8761 20.9997L12.9897 5.61133L0 6.792V17.2664C0 18.5731 -6.95391e-08 19.2264 0.254334 19.7257C0.478037 20.1648 0.834979 20.5217 1.27401 20.7454C1.77334 20.9997 2.42668 20.9997 3.73335 20.9997H15.8761ZM11.0834 14.0347C11.0834 16.5524 8.58671 18.3211 7.4982 18.9732C7.34772 19.0635 7.17552 19.1112 7.00003 19.1112C6.82454 19.1112 6.65235 19.0635 6.50186 18.9732C5.41336 18.3211 2.91668 16.5524 2.91668 14.0335C2.91668 11.5637 4.89536 9.91635 7.00003 9.91635C9.17821 9.91635 11.0834 11.5637 11.0834 14.0347Z" fill="#2B3335"/>
<path d="M0.254334 1.27401C-6.95391e-08 1.77334 0 2.42668 0 3.73335V4.44969L20.9884 2.54101C20.9663 1.97168 20.9068 1.59134 20.7458 1.27401C20.5221 0.834979 20.1651 0.478037 19.7261 0.254334C19.2268 -6.95391e-08 18.5734 0 17.2667 0H3.73335C2.42668 0 1.77334 -6.95391e-08 1.27401 0.254334C0.834979 0.478037 0.478037 0.834979 0.254334 1.27401ZM21.0001 4.88369L15.3242 5.39936L18.2479 20.9943C18.9386 20.9791 19.3714 20.9266 19.7261 20.7458C20.1651 20.5221 20.5221 20.1651 20.7458 19.7261C21.0001 19.2268 21.0001 18.5734 21.0001 17.2667V4.88369Z" fill="#2B3335" fill-opacity="0.25"/>
<path d="M7.00053 15.1673C7.64487 15.1673 8.16721 14.645 8.16721 14.0007C8.16721 13.3563 7.64487 12.834 7.00053 12.834C6.3562 12.834 5.83386 13.3563 5.83386 14.0007C5.83386 14.645 6.3562 15.1673 7.00053 15.1673Z" fill="#2B3335"/>
</g>
<defs>
<clipPath id="clip0_1846_1302">
<rect width="21" height="21" fill="white"/>
</clipPath>
</defs>
</svg>
