<svg width="27" height="27" viewBox="0 0 27 27" fill="none" xmlns="http://www.w3.org/2000/svg">
<path d="M6.375 6C5.06504 6 4 7.12109 4 8.5V18.5C4 19.8789 5.06504 21 6.375 21H20.625C21.935 21 23 19.8789 23 18.5V8.5C23 7.12109 21.935 6 20.625 6H6.375ZM9.9375 16C9.9375 16.6914 9.40684 17.25 8.75 17.25C8.09316 17.25 7.5625 16.6914 7.5625 16C7.5625 15.3086 8.09316 14.75 8.75 14.75C9.40684 14.75 9.9375 15.3086 9.9375 16ZM8.75 12.25C8.09316 12.25 7.5625 11.6914 7.5625 11C7.5625 10.3086 8.09316 9.75 8.75 9.75C9.40684 9.75 9.9375 10.3086 9.9375 11C9.9375 11.6914 9.40684 12.25 8.75 12.25ZM13.2031 10.0625H18.5469C19.0404 10.0625 19.4375 10.4805 19.4375 11C19.4375 11.5195 19.0404 11.9375 18.5469 11.9375H13.2031C12.7096 11.9375 12.3125 11.5195 12.3125 11C12.3125 10.4805 12.7096 10.0625 13.2031 10.0625ZM13.2031 15.0625H18.5469C19.0404 15.0625 19.4375 15.4805 19.4375 16C19.4375 16.5195 19.0404 16.9375 18.5469 16.9375H13.2031C12.7096 16.9375 12.3125 16.5195 12.3125 16C12.3125 15.4805 12.7096 15.0625 13.2031 15.0625Z" fill="#2B3335"/>
</svg>
