<svg width="27" height="27" viewBox="0 0 27 27" fill="none" xmlns="http://www.w3.org/2000/svg">
  <!-- Location pin (enterprise CTA uses «card» / document icon) -->
  <path
    fill-rule="evenodd"
    clip-rule="evenodd"
    d="M13.5 3.75C10.0488 3.75 7.125 6.67383 7.125 10.125C7.125 15.1523 12.6211 22.4648 12.9727 22.9102C13.1133 23.0859 13.2891 23.168 13.5 23.168C13.7109 23.168 13.8867 23.0859 14.0273 22.9102C14.3789 22.4648 19.875 15.1523 19.875 10.125C19.875 6.67383 16.9512 3.75 13.5 3.75ZM13.5 13.125C11.8096 13.125 10.5 11.8154 10.5 10.125C10.5 8.43457 11.8096 7.125 13.5 7.125C15.1904 7.125 16.5 8.43457 16.5 10.125C16.5 11.8154 15.1904 13.125 13.5 13.125Z"
    fill="#2B3335"
  />
</svg>
