<svg width="64" height="43" viewBox="0 0 64 43" fill="none" xmlns="http://www.w3.org/2000/svg">
<path d="M0.0258716 32.6151H2.78896L5.70729 39.5924H5.83147L8.74979 32.6151H11.5129V43H9.33967V36.2407H9.2517L6.50931 42.9493H5.02945L2.28705 36.2153H2.19909V43H0.0258716V32.6151Z" fill="#2B3335"/>
<path d="M13.3588 32.6151H15.5941V39.1462H15.6821L20.2614 32.6151H22.2225V43H19.982V36.4638H19.9044L15.2992 43H13.3588V32.6151Z" fill="#2B3335"/>
<path d="M24.0736 43V32.6151H28.2544C29.0582 32.6151 29.7429 32.7655 30.3086 33.0664C30.8744 33.3639 31.3056 33.778 31.6022 34.3087C31.9023 34.8361 32.0524 35.4446 32.0524 36.1342C32.0524 36.8238 31.9006 37.4323 31.597 37.9597C31.2935 38.487 30.8537 38.8978 30.2776 39.1919C29.705 39.486 29.0116 39.633 28.1975 39.633H25.5327V37.8735H27.8353C28.2665 37.8735 28.6218 37.8008 28.9012 37.6554C29.1841 37.5067 29.3945 37.3022 29.5325 37.0419C29.6739 36.7782 29.7446 36.4756 29.7446 36.1342C29.7446 35.7894 29.6739 35.4885 29.5325 35.2316C29.3945 34.9713 29.1841 34.7702 28.9012 34.6282C28.6184 34.4828 28.2596 34.4101 27.825 34.4101H26.3141V43H24.0736Z" fill="#2B3335"/>
<path d="M0 17.6665H2.17839V21.0132C2.17839 21.4121 2.24911 21.7333 2.39054 21.9767C2.53197 22.2167 2.75102 22.3908 3.04768 22.4989C3.34779 22.6037 3.73242 22.6561 4.20156 22.6561C4.36713 22.6561 4.56203 22.6511 4.78626 22.6409C5.01048 22.6274 5.2416 22.6088 5.47962 22.5851C5.72108 22.5615 5.94875 22.5327 6.16263 22.4989C6.3765 22.4651 6.55415 22.4263 6.69558 22.3823V24.1165C6.5507 24.1638 6.3696 24.2061 6.15228 24.2433C5.93841 24.2771 5.71246 24.3075 5.47444 24.3346C5.23642 24.3582 5.0053 24.3768 4.78108 24.3903C4.55686 24.4039 4.36369 24.4106 4.20156 24.4106C3.34952 24.4106 2.60786 24.2923 1.97659 24.0557C1.34533 23.8156 0.857214 23.4455 0.512259 22.9452C0.170753 22.4448 0 21.8009 0 21.0132V17.6665ZM6.30751 17.6665H8.49625V28.0514H6.30751V17.6665Z" fill="#2B3335"/>
<path d="M10.7122 17.6665H12.9475V24.1976H13.0354L17.6147 17.6665H19.5758V28.0514H17.3353V21.5152H17.2577L12.6525 28.0514H10.7122V17.6665Z" fill="#2B3335"/>
<path d="M30.7769 21.3022H28.5106C28.4692 21.0149 28.3847 20.7597 28.257 20.5366C28.1294 20.3101 27.9655 20.1174 27.7655 19.9585C27.5654 19.7996 27.3343 19.6779 27.0721 19.5934C26.8134 19.5089 26.5322 19.4666 26.2287 19.4666C25.6802 19.4666 25.2024 19.6002 24.7954 19.8672C24.3883 20.1309 24.0727 20.5163 23.8485 21.0233C23.6243 21.527 23.5122 22.1389 23.5122 22.859C23.5122 23.5993 23.6243 24.2213 23.8485 24.725C24.0762 25.2287 24.3935 25.609 24.8006 25.8659C25.2076 26.1228 25.6785 26.2513 26.2132 26.2513C26.5133 26.2513 26.791 26.2124 27.0462 26.1347C27.3049 26.0569 27.5343 25.9437 27.7344 25.7949C27.9345 25.6428 28.1001 25.4586 28.2311 25.2422C28.3657 25.0259 28.4588 24.7791 28.5106 24.5019L30.7769 24.512C30.7183 24.9887 30.5717 25.4484 30.3371 25.8913C30.106 26.3307 29.7938 26.7246 29.4005 27.0728C29.0107 27.4176 28.5451 27.6914 28.0035 27.8942C27.4653 28.0937 26.8565 28.1934 26.1769 28.1934C25.2318 28.1934 24.3866 27.9838 23.6415 27.5646C22.8999 27.1454 22.3134 26.5386 21.8822 25.7442C21.4545 24.9498 21.2406 23.988 21.2406 22.859C21.2406 21.7265 21.4579 20.763 21.8926 19.9686C22.3272 19.1742 22.9171 18.5691 23.6622 18.1533C24.4073 17.7341 25.2456 17.5245 26.1769 17.5245C26.791 17.5245 27.3601 17.609 27.8845 17.7781C28.4122 17.9471 28.8797 18.1939 29.2867 18.5184C29.6938 18.8395 30.0249 19.2334 30.2802 19.6999C30.5389 20.1664 30.7045 20.7005 30.7769 21.3022Z" fill="#2B3335"/>
<path d="M31.9799 19.4768V17.6665H40.6832V19.4768H37.4389V28.0514H35.2243V19.4768H31.9799Z" fill="#2B3335"/>
<path d="M43.5911 21.5051H46.1162C46.9579 21.5051 47.6823 21.6386 48.2894 21.9057C48.9 22.1693 49.3709 22.5429 49.702 23.0263C50.0332 23.5097 50.197 24.0793 50.1936 24.7351C50.197 25.3876 50.0332 25.964 49.702 26.4643C49.3709 26.9612 48.9 27.35 48.2894 27.6305C47.6823 27.9111 46.9579 28.0514 46.1162 28.0514H42.1579V17.6665H44.3932V26.2868H46.1162C46.5198 26.2868 46.8596 26.2158 47.1356 26.0738C47.4115 25.9285 47.6202 25.7375 47.7617 25.5008C47.9065 25.2608 47.9772 24.9988 47.9738 24.7149C47.9772 24.3024 47.8186 23.9542 47.4978 23.6703C47.1804 23.3829 46.7199 23.2393 46.1162 23.2393H43.5911V21.5051ZM53.293 17.6665V28.0514H51.0577V17.6665H53.293Z" fill="#2B3335"/>
<path d="M55.1364 17.6665H57.3717V24.1976H57.4596L62.0389 17.6665H64V28.0514H61.7595V21.5152H61.6819L57.0767 28.0514H55.1364V17.6665ZM60.6005 14.9486H62.1372C62.1338 15.5638 61.9009 16.0591 61.4387 16.4343C60.9799 16.8096 60.359 16.9972 59.5759 16.9972C58.7894 16.9972 58.1668 16.8096 57.708 16.4343C57.2492 16.0591 57.0198 15.5638 57.0198 14.9486H58.5462C58.5428 15.1818 58.6187 15.3914 58.7739 15.5774C58.9326 15.7633 59.1999 15.8562 59.5759 15.8562C59.9416 15.8562 60.2038 15.765 60.3624 15.5824C60.5211 15.3999 60.6005 15.1886 60.6005 14.9486Z" fill="#2B3335"/>
<path d="M0.0258716 13.1028V2.71792H2.26636V7.00271H6.81459V2.71792H9.0499V13.1028H6.81459V8.81297H2.26636V13.1028H0.0258716Z" fill="#2B3335"/>
<path d="M20.6352 7.91038C20.6352 9.04285 20.4162 10.0063 19.9781 10.8007C19.5434 11.5951 18.9501 12.2019 18.1981 12.6211C17.4496 13.0369 16.6079 13.2448 15.673 13.2448C14.7313 13.2448 13.8862 13.0352 13.1376 12.616C12.3891 12.1969 11.7975 11.5901 11.3628 10.7956C10.9282 10.0012 10.7109 9.03946 10.7109 7.91038C10.7109 6.77791 10.9282 5.81447 11.3628 5.02005C11.7975 4.22563 12.3891 3.62052 13.1376 3.20472C13.8862 2.78553 14.7313 2.57594 15.673 2.57594C16.6079 2.57594 17.4496 2.78553 18.1981 3.20472C18.9501 3.62052 19.5434 4.22563 19.9781 5.02005C20.4162 5.81447 20.6352 6.77791 20.6352 7.91038ZM18.3637 7.91038C18.3637 7.17681 18.2516 6.55818 18.0274 6.05448C17.8066 5.55079 17.4944 5.16879 17.0908 4.90849C16.6872 4.64819 16.2146 4.51804 15.673 4.51804C15.1315 4.51804 14.6589 4.64819 14.2553 4.90849C13.8517 5.16879 13.5378 5.55079 13.3136 6.05448C13.0928 6.55818 12.9824 7.17681 12.9824 7.91038C12.9824 8.64395 13.0928 9.26258 13.3136 9.76627C13.5378 10.27 13.8517 10.652 14.2553 10.9123C14.6589 11.1726 15.1315 11.3027 15.673 11.3027C16.2146 11.3027 16.6872 11.1726 17.0908 10.9123C17.4944 10.652 17.8066 10.27 18.0274 9.76627C18.2516 9.26258 18.3637 8.64395 18.3637 7.91038Z" fill="#2B3335"/>
<path d="M22.2949 13.1028V2.71792H26.5378C27.3174 2.71792 27.9677 2.83117 28.4886 3.05767C29.0095 3.28416 29.401 3.59855 29.6631 4.00083C29.9253 4.39973 30.0564 4.85947 30.0564 5.38007C30.0564 5.78573 29.9736 6.14237 29.808 6.45C29.6424 6.75425 29.4148 7.0044 29.125 7.20047C28.8387 7.39316 28.511 7.53007 28.1419 7.6112V7.71262C28.5455 7.72952 28.9232 7.84108 29.2751 8.04729C29.6304 8.2535 29.9184 8.54253 30.1392 8.91439C30.3599 9.28286 30.4703 9.72233 30.4703 10.2328C30.4703 10.7838 30.3306 11.2757 30.0512 11.7084C29.7753 12.1377 29.3665 12.4774 28.8249 12.7276C28.2833 12.9778 27.6158 13.1028 26.8224 13.1028H22.2949ZM24.5354 11.3078H26.3619C26.9863 11.3078 27.4416 11.1912 27.7279 10.9579C28.0143 10.7213 28.1574 10.4069 28.1574 10.0147C28.1574 9.7274 28.0867 9.47386 27.9453 9.25413C27.8038 9.03439 27.602 8.86199 27.3399 8.73691C27.0812 8.61183 26.7724 8.54929 26.4137 8.54929H24.5354V11.3078ZM24.5354 7.06356H26.1963C26.5033 7.06356 26.7759 7.01116 27.0139 6.90637C27.2554 6.79819 27.4451 6.64607 27.5831 6.45C27.7245 6.25393 27.7952 6.01899 27.7952 5.74517C27.7952 5.36993 27.6589 5.06737 27.3864 4.8375C27.1174 4.60763 26.7345 4.49269 26.2377 4.49269H24.5354V7.06356Z" fill="#2B3335"/>
<path d="M33.4029 6.55649H35.928C36.7697 6.55649 37.4941 6.69002 38.1012 6.95708C38.7118 7.22075 39.1826 7.5943 39.5138 8.07771C39.8449 8.56112 40.0088 9.13074 40.0053 9.78656C40.0088 10.439 39.8449 11.0154 39.5138 11.5157C39.1826 12.0126 38.7118 12.4014 38.1012 12.682C37.4941 12.9625 36.7697 13.1028 35.928 13.1028H31.9696V2.71792H34.2049V11.3382H35.928C36.3316 11.3382 36.6713 11.2672 36.9473 11.1252C37.2233 10.9799 37.432 10.7889 37.5734 10.5522C37.7183 10.3122 37.789 10.0502 37.7855 9.76627C37.789 9.35385 37.6303 9.00566 37.3095 8.7217C36.9921 8.43436 36.5316 8.29068 35.928 8.29068H33.4029V6.55649ZM43.1048 2.71792V13.1028H40.8694V2.71792H43.1048Z" fill="#2B3335"/>
<path d="M44.9481 2.71792H47.1834V9.24906H47.2714L51.8507 2.71792H53.8117V13.1028H51.5713V6.56663H51.4936L46.8885 13.1028H44.9481V2.71792ZM50.4122 0H51.949C51.9455 0.615252 51.7127 1.1105 51.2504 1.48573C50.7917 1.86097 50.1707 2.04859 49.3877 2.04859C48.6012 2.04859 47.9785 1.86097 47.5198 1.48573C47.061 1.1105 46.8316 0.615252 46.8316 0H48.358C48.3545 0.233255 48.4304 0.442846 48.5857 0.628774C48.7443 0.814702 49.0117 0.907665 49.3877 0.907665C49.7533 0.907665 50.0155 0.816392 50.1742 0.633845C50.3329 0.451297 50.4122 0.240016 50.4122 0Z" fill="#2B3335"/>
</svg>
