<svg width="93" height="44" viewBox="0 0 93 44" fill="none" xmlns="http://www.w3.org/2000/svg">
<path d="M0.0258716 33.4526H2.78896L5.70729 40.4299H5.83147L8.74979 33.4526H11.5129V43.8375H9.33967V37.0782H9.2517L6.50931 43.7868H5.02945L2.28705 37.0528H2.19909V43.8375H0.0258716V33.4526Z" fill="#2B3335"/>
<path d="M13.3588 33.4526H15.5941V39.9837H15.6821L20.2614 33.4526H22.2225V43.8375H19.982V37.3013H19.9044L15.2992 43.8375H13.3588V33.4526Z" fill="#2B3335"/>
<path d="M24.0736 43.8375V33.4526H28.2544C29.0582 33.4526 29.7429 33.603 30.3086 33.9039C30.8744 34.2014 31.3056 34.6155 31.6022 35.1462C31.9023 35.6736 32.0524 36.2821 32.0524 36.9717C32.0524 37.6613 31.9006 38.2698 31.597 38.7971C31.2935 39.3245 30.8537 39.7352 30.2776 40.0293C29.705 40.3234 29.0116 40.4705 28.1975 40.4705H25.5327V38.711H27.8353C28.2665 38.711 28.6218 38.6383 28.9012 38.4929C29.1841 38.3442 29.3945 38.1396 29.5325 37.8793C29.6739 37.6157 29.7446 37.3131 29.7446 36.9717C29.7446 36.6269 29.6739 36.326 29.5325 36.0691C29.3945 35.8088 29.1841 35.6076 28.9012 35.4657C28.6184 35.3203 28.2596 35.2476 27.825 35.2476H26.3141V43.8375H24.0736Z" fill="#2B3335"/>
<path d="M0 18.504H2.17839V21.8507C2.17839 22.2496 2.24911 22.5707 2.39054 22.8141C2.53197 23.0541 2.75102 23.2282 3.04768 23.3364C3.34779 23.4412 3.73242 23.4936 4.20156 23.4936C4.36713 23.4936 4.56203 23.4885 4.78626 23.4784C5.01048 23.4649 5.2416 23.4463 5.47962 23.4226C5.72108 23.399 5.94876 23.3702 6.16263 23.3364C6.3765 23.3026 6.55415 23.2637 6.69558 23.2198V24.954C6.5507 25.0013 6.3696 25.0436 6.15228 25.0808C5.93841 25.1146 5.71246 25.145 5.47444 25.172C5.23642 25.1957 5.0053 25.2143 4.78108 25.2278C4.55686 25.2413 4.36369 25.2481 4.20156 25.2481C3.34952 25.2481 2.60786 25.1298 1.97659 24.8931C1.34533 24.6531 0.857214 24.283 0.512259 23.7826C0.170753 23.2823 0 22.6383 0 21.8507V18.504ZM6.30751 18.504H8.49625V28.8889H6.30751V18.504Z" fill="#2B3335"/>
<path d="M10.7122 18.504H12.9475V25.0351H13.0354L17.6147 18.504H19.5758V28.8889H17.3353V22.3527H17.2577L12.6525 28.8889H10.7122V18.504Z" fill="#2B3335"/>
<path d="M30.7769 22.1397H28.5106C28.4692 21.8524 28.3847 21.5972 28.257 21.374C28.1294 21.1475 27.9655 20.9549 27.7655 20.796C27.5654 20.6371 27.3343 20.5154 27.0721 20.4309C26.8134 20.3464 26.5322 20.3041 26.2287 20.3041C25.6802 20.3041 25.2024 20.4376 24.7954 20.7047C24.3883 20.9684 24.0727 21.3538 23.8485 21.8608C23.6243 22.3645 23.5122 22.9764 23.5122 23.6964C23.5122 24.4368 23.6243 25.0588 23.8485 25.5625C24.0762 26.0662 24.3935 26.4465 24.8006 26.7034C25.2076 26.9603 25.6785 27.0888 26.2132 27.0888C26.5133 27.0888 26.791 27.0499 27.0462 26.9721C27.3049 26.8944 27.5343 26.7812 27.7344 26.6324C27.9345 26.4803 28.1001 26.296 28.2311 26.0797C28.3657 25.8633 28.4588 25.6166 28.5106 25.3394L30.7769 25.3495C30.7183 25.8262 30.5717 26.2859 30.3371 26.7288C30.106 27.1682 29.7938 27.562 29.4005 27.9102C29.0107 28.2551 28.5451 28.5289 28.0035 28.7317C27.4653 28.9312 26.8565 29.0309 26.1769 29.0309C25.2318 29.0309 24.3866 28.8213 23.6415 28.4021C22.8999 27.9829 22.3134 27.3761 21.8822 26.5817C21.4545 25.7873 21.2406 24.8255 21.2406 23.6964C21.2406 22.564 21.4579 21.6005 21.8926 20.8061C22.3272 20.0117 22.9171 19.4066 23.6622 18.9908C24.4073 18.5716 25.2456 18.362 26.1769 18.362C26.791 18.362 27.3601 18.4465 27.8845 18.6155C28.4122 18.7846 28.8797 19.0313 29.2867 19.3559C29.6938 19.677 30.0249 20.0709 30.2802 20.5374C30.5389 21.0039 30.7045 21.538 30.7769 22.1397Z" fill="#2B3335"/>
<path d="M31.9799 20.3143V18.504H40.6832V20.3143H37.4389V28.8889H35.2243V20.3143H31.9799Z" fill="#2B3335"/>
<path d="M43.5911 22.3426H46.1162C46.9579 22.3426 47.6823 22.4761 48.2894 22.7431C48.9 23.0068 49.3709 23.3804 49.702 23.8638C50.0332 24.3472 50.197 24.9168 50.1936 25.5726C50.197 26.2251 50.0332 26.8014 49.702 27.3018C49.3709 27.7987 48.9 28.1874 48.2894 28.468C47.6823 28.7486 46.9579 28.8889 46.1162 28.8889H42.1579V18.504H44.3932V27.1243H46.1162C46.5198 27.1243 46.8596 27.0533 47.1356 26.9113C47.4115 26.7659 47.6202 26.5749 47.7617 26.3383C47.9065 26.0983 47.9773 25.8363 47.9738 25.5523C47.9773 25.1399 47.8186 24.7917 47.4978 24.5078C47.1804 24.2204 46.7199 24.0768 46.1162 24.0768H43.5911V22.3426ZM53.293 18.504V28.8889H51.0577V18.504H53.293Z" fill="#2B3335"/>
<path d="M55.1364 18.504H57.3717V25.0351H57.4596L62.0389 18.504H64V28.8889H61.7595V22.3527H61.6819L57.0767 28.8889H55.1364V18.504ZM60.6005 15.7861H62.1372C62.1338 16.4013 61.9009 16.8966 61.4387 17.2718C60.9799 17.647 60.359 17.8347 59.5759 17.8347C58.7894 17.8347 58.1668 17.647 57.708 17.2718C57.2492 16.8966 57.0198 16.4013 57.0198 15.7861H58.5462C58.5428 16.0193 58.6187 16.2289 58.7739 16.4148C58.9326 16.6007 59.1999 16.6937 59.5759 16.6937C59.9416 16.6937 60.2038 16.6024 60.3624 16.4199C60.5211 16.2373 60.6005 16.0261 60.6005 15.7861Z" fill="#2B3335"/>
<path d="M39 13.1028V2.71792H41.2405V7.00271H45.7887V2.71792H48.024V13.1028H45.7887V8.81297H41.2405V13.1028H39Z" fill="#2B3335"/>
<path d="M59.6094 7.91038C59.6094 9.04285 59.3903 10.0063 58.9522 10.8007C58.5176 11.5951 57.9242 12.2019 57.1722 12.6211C56.4237 13.0369 55.582 13.2448 54.6472 13.2448C53.7054 13.2448 52.8603 13.0352 52.1118 12.616C51.3632 12.1969 50.7716 11.5901 50.337 10.7956C49.9023 10.0012 49.685 9.03947 49.685 7.91038C49.685 6.77791 49.9023 5.81447 50.337 5.02005C50.7716 4.22563 51.3632 3.62052 52.1118 3.20472C52.8603 2.78553 53.7054 2.57594 54.6472 2.57594C55.582 2.57594 56.4237 2.78553 57.1722 3.20472C57.9242 3.62052 58.5176 4.22563 58.9522 5.02005C59.3903 5.81447 59.6094 6.77791 59.6094 7.91038ZM57.3378 7.91038C57.3378 7.17681 57.2257 6.55818 57.0015 6.05448C56.7807 5.55079 56.4685 5.16879 56.0649 4.90849C55.6613 4.64819 55.1888 4.51804 54.6472 4.51804C54.1056 4.51804 53.633 4.64819 53.2294 4.90849C52.8258 5.16879 52.5119 5.55079 52.2877 6.05448C52.0669 6.55818 51.9565 7.17681 51.9565 7.91038C51.9565 8.64395 52.0669 9.26258 52.2877 9.76627C52.5119 10.27 52.8258 10.652 53.2294 10.9123C53.633 11.1726 54.1056 11.3027 54.6472 11.3027C55.1888 11.3027 55.6613 11.1726 56.0649 10.9123C56.4685 10.652 56.7807 10.27 57.0015 9.76627C57.2257 9.26258 57.3378 8.64395 57.3378 7.91038Z" fill="#2B3335"/>
<path d="M61.269 13.1028V2.71792H65.512C66.2916 2.71792 66.9418 2.83117 67.4627 3.05767C67.9836 3.28416 68.3751 3.59855 68.6373 4.00082C68.8994 4.39972 69.0305 4.85947 69.0305 5.38007C69.0305 5.78573 68.9477 6.14237 68.7822 6.45C68.6166 6.75424 68.3889 7.0044 68.0991 7.20047C67.8128 7.39316 67.4851 7.53007 67.116 7.6112V7.71262C67.5196 7.72952 67.8973 7.84108 68.2492 8.04729C68.6045 8.2535 68.8925 8.54253 69.1133 8.91439C69.3341 9.28286 69.4445 9.72233 69.4445 10.2328C69.4445 10.7838 69.3048 11.2757 69.0253 11.7084C68.7494 12.1377 68.3406 12.4774 67.799 12.7276C67.2574 12.9778 66.59 13.1028 65.7966 13.1028H61.269ZM63.5095 11.3078H65.336C65.9604 11.3078 66.4158 11.1912 66.7021 10.9579C66.9884 10.7213 67.1315 10.4069 67.1315 10.0147C67.1315 9.7274 67.0608 9.47386 66.9194 9.25413C66.778 9.03439 66.5762 8.86199 66.314 8.73691C66.0553 8.61183 65.7465 8.54929 65.3878 8.54929H63.5095V11.3078ZM63.5095 7.06356H65.1705C65.4775 7.06356 65.75 7.01116 65.988 6.90637C66.2295 6.79819 66.4192 6.64607 66.5572 6.45C66.6986 6.25393 66.7693 6.01899 66.7693 5.74517C66.7693 5.36993 66.6331 5.06737 66.3606 4.8375C66.0915 4.60763 65.7086 4.49269 65.2119 4.49269H63.5095V7.06356Z" fill="#2B3335"/>
<path d="M72.377 6.55649H74.9021C75.7438 6.55649 76.4682 6.69002 77.0753 6.95708C77.6859 7.22075 78.1567 7.5943 78.4879 8.07771C78.8191 8.56112 78.9829 9.13074 78.9795 9.78656C78.9829 10.439 78.8191 11.0154 78.4879 11.5157C78.1567 12.0126 77.6859 12.4014 77.0753 12.682C76.4682 12.9625 75.7438 13.1028 74.9021 13.1028H70.9437V2.71792H73.179V11.3382H74.9021C75.3057 11.3382 75.6455 11.2672 75.9214 11.1252C76.1974 10.9799 76.4061 10.7889 76.5475 10.5522C76.6924 10.3122 76.7631 10.0502 76.7597 9.76627C76.7631 9.35385 76.6044 9.00566 76.2836 8.7217C75.9663 8.43436 75.5058 8.29068 74.9021 8.29068H72.377V6.55649ZM82.0789 2.71792V13.1028H79.8436V2.71792H82.0789Z" fill="#2B3335"/>
<path d="M83.9222 2.71792H86.1575V9.24906H86.2455L90.8248 2.71792H92.7859V13.1028H90.5454V6.56663H90.4678L85.8626 13.1028H83.9222V2.71792ZM89.3863 0H90.9231C90.9197 0.615252 90.6868 1.1105 90.2246 1.48573C89.7658 1.86097 89.1449 2.04859 88.3618 2.04859C87.5753 2.04859 86.9527 1.86097 86.4939 1.48573C86.0351 1.1105 85.8057 0.615252 85.8057 0H87.3321C87.3287 0.233255 87.4046 0.442846 87.5598 0.628774C87.7185 0.814702 87.9858 0.907665 88.3618 0.907665C88.7275 0.907665 88.9896 0.816392 89.1483 0.633845C89.307 0.451297 89.3863 0.240016 89.3863 0Z" fill="#2B3335"/>
<path d="M0.512259 2.91087H3.27535L6.19367 9.88822H6.31786L9.23618 2.91087H11.9993V13.2958H9.82605V6.53646H9.73809L6.99569 13.2451H5.51584L2.77344 6.5111H2.68548V13.2958H0.512259V2.91087Z" fill="#2B3335"/>
<path d="M23.8485 8.2453C23.8485 9.37777 23.6294 10.3412 23.1914 11.1356C22.7567 11.93 22.1634 12.5368 21.4114 12.956C20.6628 13.3718 19.8211 13.5797 18.8863 13.5797C17.9446 13.5797 17.0994 13.3701 16.3509 12.951C15.6023 12.5318 15.0107 11.925 14.5761 11.1306C14.1414 10.3361 13.9241 9.37439 13.9241 8.2453C13.9241 7.11283 14.1414 6.14939 14.5761 5.35497C15.0107 4.56055 15.6023 3.95544 16.3509 3.53964C17.0994 3.12046 17.9446 2.91087 18.8863 2.91087C19.8211 2.91087 20.6628 3.12046 21.4114 3.53964C22.1634 3.95544 22.7567 4.56055 23.1914 5.35497C23.6294 6.14939 23.8485 7.11283 23.8485 8.2453ZM21.577 8.2453C21.577 7.51173 21.4648 6.8931 21.2406 6.3894C21.0199 5.88571 20.7077 5.50371 20.3041 5.24341C19.9005 4.98311 19.4279 4.85296 18.8863 4.85296C18.3447 4.85296 17.8721 4.98311 17.4685 5.24341C17.0649 5.50371 16.751 5.88571 16.5268 6.3894C16.306 6.8931 16.1957 7.51173 16.1957 8.2453C16.1957 8.97887 16.306 9.5975 16.5268 10.1012C16.751 10.6049 17.0649 10.9869 17.4685 11.2472C17.8721 11.5075 18.3447 11.6376 18.8863 11.6376C19.4279 11.6376 19.9005 11.5075 20.3041 11.2472C20.7077 10.9869 21.0199 10.6049 21.2406 10.1012C21.4648 9.5975 21.577 8.97887 21.577 8.2453Z" fill="#2B3335"/>
<path d="M25.5327 2.86047H27.768V9.3916H27.856L32.4353 2.86047H34.3964V13.2454H32.1559V6.70917H32.0783L27.4731 13.2454H25.5327V2.86047ZM30.9968 0.142544H32.5336C32.5302 0.757796 32.2973 1.25304 31.8351 1.62828C31.3763 2.00351 30.7554 2.19113 29.9723 2.19113C29.1858 2.19113 28.5632 2.00351 28.1044 1.62828C27.6456 1.25304 27.4162 0.757796 27.4162 0.142544H28.9426C28.9392 0.375799 29.0151 0.58539 29.1703 0.771318C29.329 0.957246 29.5963 1.05021 29.9723 1.05021C30.338 1.05021 30.6001 0.958936 30.7588 0.776389C30.9175 0.593841 30.9968 0.38256 30.9968 0.142544Z" fill="#2B3335"/>
</svg>
