<svg width="49" height="56" viewBox="0 0 49 56" fill="none" xmlns="http://www.w3.org/2000/svg">
<path d="M5.65385 24.2667V22.4H3.76923V24.2667H5.65385ZM20.7308 24.2667V22.4H18.8462V24.2667H20.7308ZM20.7308 39.2H18.8462V41.0667H20.7308V39.2ZM47.1154 13.0667H49V12.2939L48.4497 11.7451L47.1154 13.0667ZM35.8077 1.86667L37.142 0.545067L36.5879 0H35.8077V1.86667ZM5.65385 26.1333H9.42308V22.4H5.65385V26.1333ZM7.53846 41.0667V31.7333H3.76923V41.0667H7.53846ZM7.53846 31.7333V24.2667H3.76923V31.7333H7.53846ZM9.42308 29.8667H5.65385V33.6H9.42308V29.8667ZM11.3077 28C11.3077 28.4951 11.1091 28.9699 10.7557 29.3199C10.4023 29.67 9.92291 29.8667 9.42308 29.8667V33.6C10.9226 33.6 12.3606 33.01 13.421 31.9598C14.4813 30.9096 15.0769 29.4852 15.0769 28H11.3077ZM9.42308 26.1333C9.92291 26.1333 10.4023 26.33 10.7557 26.6801C11.1091 27.0301 11.3077 27.5049 11.3077 28H15.0769C15.0769 26.5148 14.4813 25.0904 13.421 24.0402C12.3606 22.99 10.9226 22.4 9.42308 22.4V26.1333ZM18.8462 24.2667V39.2H22.6154V24.2667H18.8462ZM20.7308 41.0667H24.5V37.3333H20.7308V41.0667ZM30.1538 35.4667V28H26.3846V35.4667H30.1538ZM24.5 22.4H20.7308V26.1333H24.5V22.4ZM30.1538 28C30.1538 26.5148 29.5582 25.0904 28.4979 24.0402C27.4376 22.99 25.9995 22.4 24.5 22.4V26.1333C24.9998 26.1333 25.4792 26.33 25.8326 26.6801C26.1861 27.0301 26.3846 27.5049 26.3846 28H30.1538ZM24.5 41.0667C25.9995 41.0667 27.4376 40.4767 28.4979 39.4265C29.5582 38.3763 30.1538 36.9519 30.1538 35.4667H26.3846C26.3846 35.9617 26.1861 36.4365 25.8326 36.7866C25.4792 37.1367 24.9998 37.3333 24.5 37.3333V41.0667ZM33.9231 22.4V41.0667H37.6923V22.4H33.9231ZM35.8077 26.1333H45.2308V22.4H35.8077V26.1333ZM35.8077 33.6H41.4615V29.8667H35.8077V33.6ZM3.76923 18.6667V5.6H0V18.6667H3.76923ZM45.2308 13.0667V18.6667H49V13.0667H45.2308ZM5.65385 3.73333H35.8077V0H5.65385V3.73333ZM34.4734 3.18827L45.7811 14.3883L48.4497 11.7451L37.142 0.545067L34.4734 3.18827ZM3.76923 5.6C3.76923 5.10493 3.96779 4.63014 4.32122 4.28007C4.67466 3.93 5.15402 3.73333 5.65385 3.73333V0C4.15435 0 2.71628 0.589998 1.65597 1.6402C0.595672 2.69041 0 4.11479 0 5.6H3.76923ZM0 44.8V50.4H3.76923V44.8H0ZM5.65385 56H43.3462V52.2667H5.65385V56ZM49 50.4V44.8H45.2308V50.4H49ZM43.3462 56C44.8456 56 46.2837 55.41 47.344 54.3598C48.4043 53.3096 49 51.8852 49 50.4H45.2308C45.2308 50.8951 45.0322 51.3699 44.6788 51.7199C44.3253 52.07 43.846 52.2667 43.3462 52.2667V56ZM0 50.4C0 51.8852 0.595672 53.3096 1.65597 54.3598C2.71628 55.41 4.15435 56 5.65385 56V52.2667C5.15402 52.2667 4.67466 52.07 4.32122 51.7199C3.96779 51.3699 3.76923 50.8951 3.76923 50.4H0Z" fill="#828584"/>
</svg>
