<svg width="27" height="27" viewBox="0 0 27 27" fill="none" xmlns="http://www.w3.org/2000/svg">
<path d="M7.175 20.825C6.39167 20.0417 6 19.1 6 18V9.825C5.41667 9.60833 4.93767 9.246 4.563 8.738C4.18833 8.23 4.00067 7.65067 4 7C4 6.16667 4.29167 5.45833 4.875 4.875C5.45833 4.29167 6.16667 4 7 4C7.83333 4 8.54167 4.29167 9.125 4.875C9.70833 5.45833 10 6.16667 10 7C10 7.65 9.81267 8.22933 9.438 8.738C9.06333 9.24667 8.584 9.609 8 9.825V18C8 18.55 8.196 19.021 8.588 19.413C8.98 19.805 9.45067 20.0007 10 20C10.5493 19.9993 11.0203 19.8037 11.413 19.413C11.8057 19.0223 12.0013 18.5513 12 18V8C12 6.9 12.3917 5.95833 13.175 5.175C13.9583 4.39167 14.9 4 16 4C17.1 4 18.0417 4.39167 18.825 5.175C19.6083 5.95833 20 6.9 20 8V16.175C20.5833 16.3917 21.0627 16.7543 21.438 17.263C21.8133 17.7717 22.0007 18.3507 22 19C22 19.8333 21.7083 20.5417 21.125 21.125C20.5417 21.7083 19.8333 22 19 22C18.1667 22 17.4583 21.7083 16.875 21.125C16.2917 20.5417 16 19.8333 16 19C16 18.35 16.1877 17.7667 16.563 17.25C16.9383 16.7333 17.4173 16.375 18 16.175V8C18 7.45 17.8043 6.97933 17.413 6.588C17.0217 6.19667 16.5507 6.00067 16 6C15.4493 5.99933 14.9787 6.19533 14.588 6.588C14.1973 6.98067 14.0013 7.45133 14 8V18C14 19.1 13.6083 20.0417 12.825 20.825C12.0417 21.6083 11.1 22 10 22C8.9 22 7.95833 21.6083 7.175 20.825Z" fill="#2B3335"/>
</svg>
