<svg width="55" height="55" viewBox="0 0 55 55" fill="none" xmlns="http://www.w3.org/2000/svg">
<circle cx="27.5" cy="27.5" r="27.5" fill="#AAAAAA" fill-opacity="0.3"/>
<path d="M27.5 18V18.95M27.5 36.05V37M37 27.5H36.05M18.95 27.5H18M34.2165 20.7835L33.8441 21.1568M21.1559 33.8441L20.7825 34.2174M34.2165 34.2165L33.8441 33.8431M21.1559 21.1559L20.7825 20.7825M33.2 27.5C33.2 30.648 30.648 33.2 27.5 33.2C24.352 33.2 21.8 30.648 21.8 27.5C21.8 24.352 24.352 21.8 27.5 21.8C30.648 21.8 33.2 24.352 33.2 27.5Z" stroke="#5E6668" stroke-width="1.5" stroke-linecap="round"/>
<circle cx="27.5" cy="27.5" r="27.5" fill="url(#paint0_linear_1864_1733)"/>
<circle cx="27.5" cy="27.5" r="27" stroke="white" stroke-opacity="0.6"/>
<path d="M27.5 18V18.95M27.5 36.05V37M37 27.5H36.05M18.95 27.5H18M34.2165 20.7835L33.8441 21.1568M21.1559 33.8441L20.7825 34.2174M34.2165 34.2165L33.8441 33.8431M21.1559 21.1559L20.7825 20.7825M33.2 27.5C33.2 30.648 30.648 33.2 27.5 33.2C24.352 33.2 21.8 30.648 21.8 27.5C21.8 24.352 24.352 21.8 27.5 21.8C30.648 21.8 33.2 24.352 33.2 27.5Z" stroke="#505B30" stroke-width="1.5" stroke-linecap="round"/>
<defs>
<linearGradient id="paint0_linear_1864_1733" x1="3.6197e-09" y1="5.5" x2="55.0048" y2="6.32926" gradientUnits="userSpaceOnUse">
<stop stop-color="#DBECA8"/>
<stop offset="1" stop-color="#BCDC57"/>
</linearGradient>
</defs>
</svg>
