<svg width="55" height="55" viewBox="0 0 55 55" fill="none" xmlns="http://www.w3.org/2000/svg">
<circle cx="27.5" cy="27.5" r="27.5" fill="#AAAAAA" fill-opacity="0.3"/>
<path d="M40.3386 34.6923H39.2369V20.5565L40.4774 20.2939C40.6489 20.2575 40.7988 20.1552 40.894 20.0095C40.9893 19.8637 41.0221 19.6866 40.9853 19.5169C40.9485 19.3473 40.845 19.199 40.6977 19.1048C40.5504 19.0106 40.3713 18.9782 40.1998 19.0146L15.5226 24.2452C15.3511 24.2816 15.2012 24.3839 15.106 24.5297C15.0107 24.6754 14.9779 24.8525 15.0147 25.0222C15.0515 25.1918 15.155 25.3401 15.3023 25.4343C15.4496 25.5285 15.6287 25.561 15.8002 25.5245L16.7631 25.3208V34.6923H15.6614C15.4861 34.6923 15.318 34.7612 15.194 34.8838C15.0701 35.0065 15.0004 35.1728 15.0004 35.3462C15.0004 35.5196 15.0701 35.6859 15.194 35.8085C15.318 35.9311 15.4861 36 15.6614 36H40.3386C40.5139 36 40.682 35.9311 40.806 35.8085C40.9299 35.6859 40.9996 35.5196 40.9996 35.3462C40.9996 35.1728 40.9299 35.0065 40.806 34.8838C40.682 34.7612 40.5139 34.6923 40.3386 34.6923ZM18.0851 25.0396L37.9149 20.8366V34.6923H34.8303V28.372C34.8303 28.1986 34.7607 28.0323 34.6367 27.9096C34.5127 27.787 34.3446 27.7181 34.1693 27.7181H21.8307C21.6554 27.7181 21.4873 27.787 21.3633 27.9096C21.2393 28.0323 21.1697 28.1986 21.1697 28.372V34.6923H18.0851V25.0396ZM33.5083 31.2052H22.4917V29.0258H33.5083V31.2052ZM22.4917 32.5129H33.5083V34.6923H22.4917V32.5129Z" fill="#5E6668"/>
</svg>
