<svg width="55" height="55" viewBox="0 0 55 55" fill="none" xmlns="http://www.w3.org/2000/svg">
<circle cx="27.5" cy="27.5" r="27.5" fill="#AAAAAA" fill-opacity="0.3"/>
<path d="M27.5 28.8571C28.2495 28.8571 28.8571 28.2495 28.8571 27.5C28.8571 26.7505 28.2495 26.1429 27.5 26.1429C26.7505 26.1429 26.1429 26.7505 26.1429 27.5C26.1429 28.2495 26.7505 28.8571 27.5 28.8571Z" fill="#5E6668"/>
<path d="M37 28.1786V26.8214H32.8132L34.5639 25.0639L33.6071 24.1071L30.2143 27.5L33.6071 30.8929L34.5639 29.9361L32.8132 28.1786H37ZM26.8214 32.8132V37H28.1786V32.8132L29.9361 34.5639L30.8929 33.6071L27.5 30.2143L24.1071 33.6071L25.0639 34.5639L26.8214 32.8132ZM21.3929 24.1071L20.4361 25.0639L22.1868 26.8214H18V28.1786H22.1868L20.4361 29.9361L21.3929 30.8929L24.7857 27.5L21.3929 24.1071ZM28.1786 22.1868V18H26.8214V22.1868L25.0639 20.4361L24.1071 21.3929L27.5 24.7857L30.8929 21.3929L29.9361 20.4361L28.1786 22.1868Z" fill="#5E6668"/>
</svg>
