<svg width="55" height="55" viewBox="0 0 55 55" fill="none" xmlns="http://www.w3.org/2000/svg">
<circle cx="27.5" cy="27.5" r="27.5" fill="#AAAAAA" fill-opacity="0.3"/>
<path d="M38.964 18.6063C38.9555 18.4583 38.8949 18.3187 38.7938 18.2138C38.6927 18.109 38.558 18.0462 38.4153 18.0373C33.4449 17.7341 29.4607 19.2925 27.7581 22.2072C26.6247 24.1487 26.649 26.5206 27.8098 28.7764C27.0655 29.6599 26.5467 30.7228 26.3011 31.868L24.3714 29.8659C25.1657 28.2387 25.1608 26.5358 24.3402 25.131C23.0917 22.9935 20.1904 21.8474 16.5746 22.0698C16.4317 22.0787 16.297 22.1416 16.1958 22.2467C16.0947 22.3517 16.0343 22.4916 16.0259 22.6398C15.8135 26.3883 16.9167 29.3969 18.978 30.6916C19.6493 31.117 20.4211 31.3416 21.2079 31.3404C22.0226 31.3317 22.824 31.1239 23.5469 30.734L26.1354 33.4102V36.3936C26.1354 36.5544 26.197 36.7087 26.3067 36.8224C26.4163 36.9361 26.5651 37 26.7202 37C26.8753 37 27.024 36.9361 27.1337 36.8224C27.2433 36.7087 27.3049 36.5544 27.3049 36.3936V33.4132C27.301 32.0241 27.7767 30.6793 28.646 29.6223C29.7385 30.2216 30.8603 30.5228 31.9421 30.5228C33.0002 30.5264 34.0387 30.2267 34.9428 29.6567C37.7536 27.8931 39.2564 23.7606 38.964 18.6063ZM19.5842 29.6536C17.9946 28.6561 17.1097 26.2872 17.1691 23.2553C20.0929 23.1896 22.3744 24.1082 23.3364 25.7566C23.8899 26.7036 23.9367 27.8163 23.4865 28.9492L20.896 26.2619C20.7863 26.1481 20.6374 26.0842 20.4823 26.0842C20.3271 26.0842 20.1783 26.1481 20.0685 26.2619C19.9588 26.3757 19.8972 26.53 19.8972 26.6909C19.8972 26.8519 19.9588 27.0062 20.0685 27.12L22.6629 29.8093C21.5704 30.2762 20.4974 30.2287 19.5842 29.6536ZM34.3376 28.6208C32.9011 29.5223 31.2053 29.5485 29.4968 28.7117L34.9311 23.0774C34.9855 23.021 35.0286 22.9542 35.058 22.8806C35.0874 22.8069 35.1025 22.728 35.1025 22.6484C35.1025 22.5687 35.0874 22.4898 35.058 22.4162C35.0286 22.3426 34.9855 22.2757 34.9311 22.2194C34.8768 22.163 34.8123 22.1183 34.7413 22.0878C34.6703 22.0573 34.5943 22.0416 34.5174 22.0416C34.4406 22.0416 34.3645 22.0573 34.2935 22.0878C34.2225 22.1183 34.158 22.163 34.1037 22.2194L28.6694 27.8547C27.8624 26.083 27.8897 24.3245 28.7571 22.8358C30.1722 20.4103 33.5384 19.0783 37.8208 19.2228C37.9602 23.6595 36.6747 27.1523 34.3376 28.6208Z" fill="#5E6668"/>
</svg>
