<svg width="55" height="55" viewBox="0 0 55 55" fill="none" xmlns="http://www.w3.org/2000/svg">
<circle cx="27.5" cy="27.5" r="27.5" fill="#AAAAAA" fill-opacity="0.3"/>
<path d="M21.1429 34.8889C21.1429 35.4488 21.3837 35.9858 21.8123 36.3817C22.241 36.7776 22.8224 37 23.4286 37H32.5714C33.1776 37 33.759 36.7776 34.1877 36.3817C34.6163 35.9858 34.8571 35.4488 34.8571 34.8889V22.2222H21.1429V34.8889ZM23.4286 24.3333H32.5714V34.8889H23.4286V24.3333ZM32 19.0556L30.8571 18H25.1429L24 19.0556H20V21.1667H36V19.0556H32Z" fill="#5E6668" stroke="#D0D2D1"/>
<circle cx="27.5" cy="27.5" r="27.5" fill="url(#paint0_linear_1864_1736)"/>
<circle cx="27.5" cy="27.5" r="27" stroke="white" stroke-opacity="0.6"/>
<path d="M21.1429 34.8889C21.1429 35.4488 21.3837 35.9858 21.8123 36.3817C22.241 36.7776 22.8224 37 23.4286 37H32.5714C33.1776 37 33.759 36.7776 34.1877 36.3817C34.6163 35.9858 34.8571 35.4488 34.8571 34.8889V22.2222H21.1429V34.8889ZM23.4286 24.3333H32.5714V34.8889H23.4286V24.3333ZM32 19.0556L30.8571 18H25.1429L24 19.0556H20V21.1667H36V19.0556H32Z" fill="#505B30"/>
<defs>
<linearGradient id="paint0_linear_1864_1736" x1="3.6197e-09" y1="5.5" x2="55.0048" y2="6.32926" gradientUnits="userSpaceOnUse">
<stop stop-color="#DBECA8"/>
<stop offset="1" stop-color="#BCDC57"/>
</linearGradient>
</defs>
</svg>
