<svg width="55" height="55" viewBox="0 0 55 55" fill="none" xmlns="http://www.w3.org/2000/svg">
<circle cx="27.5" cy="27.5" r="27.5" fill="#AAAAAA" fill-opacity="0.31"/>
<path d="M17.7326 18.7308V18C17.5383 18 17.3519 18.077 17.2146 18.214C17.0772 18.3511 17 18.537 17 18.7308H17.7326ZM28.4767 18.7308H29.2093C29.2093 18.537 29.1321 18.3511 28.9947 18.214C28.8574 18.077 28.671 18 28.4767 18V18.7308ZM28.4767 24.5771V23.8463C28.2825 23.8463 28.0961 23.9233 27.9587 24.0604C27.8214 24.1974 27.7442 24.3833 27.7442 24.5771H28.4767ZM17.7326 19.4616H28.4767V18H17.7326V19.4616ZM27.7442 18.7308V34.321H29.2093V18.7308H27.7442ZM18.4651 32.3722V18.7308H17V32.3722H18.4651ZM28.4767 25.3079H33.3605V23.8463H28.4767V25.3079ZM36.5349 28.4747V32.3722H38V28.4747H36.5349ZM29.2093 34.321V24.5771H27.7442V34.321H29.2093ZM34.2239 35.1824C34.1105 35.2955 33.9759 35.3852 33.8278 35.4465C33.6796 35.5077 33.5208 35.5392 33.3605 35.5392C33.2001 35.5392 33.0413 35.5077 32.8932 35.4465C32.745 35.3852 32.6104 35.2955 32.497 35.1824L31.4617 36.2152C31.9654 36.7177 32.6486 37 33.361 37C34.0733 37 34.7565 36.7177 35.2602 36.2152L34.2239 35.1824ZM32.497 33.4596C32.6104 33.3465 32.745 33.2568 32.8932 33.1955C33.0413 33.1343 33.2001 33.1028 33.3605 33.1028C33.5208 33.1028 33.6796 33.1343 33.8278 33.1955C33.9759 33.2568 34.1105 33.3465 34.2239 33.4596L35.2593 32.4268C34.7555 31.9243 34.0723 31.642 33.36 31.642C32.6476 31.642 31.9644 31.9243 31.4607 32.4268L32.497 33.4596ZM22.503 35.1824C22.3896 35.2955 22.255 35.3852 22.1068 35.4465C21.9587 35.5077 21.7999 35.5392 21.6395 35.5392C21.4792 35.5392 21.3204 35.5077 21.1722 35.4465C21.0241 35.3852 20.8895 35.2955 20.7761 35.1824L19.7407 36.2152C20.2445 36.7177 20.9277 37 21.64 37C22.3524 37 23.0356 36.7177 23.5393 36.2152L22.503 35.1824ZM20.7761 33.4596C20.8895 33.3465 21.0241 33.2568 21.1722 33.1955C21.3204 33.1343 21.4792 33.1028 21.6395 33.1028C21.7999 33.1028 21.9587 33.1343 22.1068 33.1955C22.255 33.2568 22.3896 33.3465 22.503 33.4596L23.5383 32.4268C23.0346 31.9243 22.3514 31.642 21.639 31.642C20.9267 31.642 20.2435 31.9243 19.7398 32.4268L20.7761 33.4596ZM34.2239 33.4596C34.4622 33.6974 34.5814 34.0082 34.5814 34.321H36.0465C36.0465 33.636 35.7838 32.9491 35.2602 32.4258L34.2239 33.4596ZM34.5814 34.321C34.5814 34.6338 34.4622 34.9446 34.2239 35.1824L35.2602 36.2152C35.5101 35.9668 35.7073 35.6716 35.8424 35.3465C35.9776 35.0214 36.0469 34.6729 36.0465 34.321H34.5814ZM31.407 33.5902H28.4767V35.0518H31.407V33.5902ZM32.497 35.1824C32.3832 35.0696 32.293 34.9353 32.2316 34.7875C32.1703 34.6396 32.139 34.481 32.1395 34.321H30.6744C30.6744 35.006 30.9372 35.6929 31.4607 36.2162L32.497 35.1824ZM32.1395 34.321C32.1395 34.0082 32.2587 33.6974 32.497 33.4596L31.4607 32.4268C31.2108 32.6752 31.0136 32.9704 30.8785 33.2955C30.7434 33.6206 30.674 33.9691 30.6744 34.321H32.1395ZM20.7761 35.1824C20.6623 35.0696 20.5721 34.9353 20.5107 34.7875C20.4493 34.6396 20.418 34.481 20.4186 34.321H18.9535C18.9535 35.006 19.2162 35.6929 19.7398 36.2162L20.7761 35.1824ZM20.4186 34.321C20.4186 34.0082 20.5378 33.6974 20.7761 33.4596L19.7407 32.4268C19.4909 32.6752 19.2927 32.9704 19.1576 33.2955C19.0224 33.6206 18.9531 33.9691 18.9535 34.321H20.4186ZM28.4767 33.5902H23.593V35.0518H28.4767V33.5902ZM22.503 33.4596C22.7413 33.6974 22.8605 34.0082 22.8605 34.321H24.3256C24.3256 33.636 24.0628 32.9491 23.5393 32.4258L22.503 33.4596ZM22.8605 34.321C22.8605 34.6338 22.7413 34.9446 22.503 35.1824L23.5383 36.2152C23.7882 35.9668 23.9864 35.6716 24.1215 35.3465C24.2566 35.0214 24.326 34.6729 24.3256 34.321H22.8605ZM36.5349 32.3722C36.5349 33.0446 35.9879 33.5902 35.314 33.5902V35.0518C36.0263 35.0518 36.7095 34.7695 37.2133 34.267C37.717 33.7645 38 33.0829 38 32.3722H36.5349ZM33.3605 25.3079C34.2024 25.3079 35.0098 25.6416 35.6051 26.2354C36.2004 26.8293 36.5349 27.6348 36.5349 28.4747H38C38 27.2472 37.5112 26.0699 36.6411 25.2019C35.771 24.334 34.5909 23.8463 33.3605 23.8463V25.3079ZM17 32.3722C17 33.0829 17.283 33.7645 17.7867 34.267C18.2905 34.7695 18.9737 35.0518 19.686 35.0518V33.5902C19.0121 33.5902 18.4651 33.0446 18.4651 32.3722H17Z" fill="#5E6668"/>
</svg>
